# xmcd
#
# Track frame offsets: 
#        150
#        13721
#        26320
#        39946
#        51358
#        64678
#        76816
#        89306
#        100176
#        111736
#        123686
#        134623
#        149680
#        161342
#        171329
#        186055
#        199086
#        208871
#        218139
#        229849
#        241512
#        253839
#        263497
#        276793
#        288174
#        300136
#        312318
#        323942
#
# Disc length: 4480 seconds
#
# Revision: 1
# Processed by: cddbd v1.5.2PL0 Copyright (c) Steve Scherf et al.
# Submitted via: ExactAudioCopy v0.90b4
#
DISCID=91117e1c
DTITLE=Various Artist - Atlantic Rhythm And Blues 1947-1974, Vol. 3 (1955-195
DTITLE=7)
DYEAR=1991
DGENRE=R&B
TTITLE0=The Cardinals - The Door Is Still Open
TTITLE1=Joe Turner - Flip, Flop And Fly
TTITLE2=Ray Charles - A Fool For You
TTITLE3=Ray Charles - This Little Girl Of Mine
TTITLE4=LaVern Baker - Play It Fair
TTITLE5=The Drifters - Adorable
TTITLE6=The Robins - Smokey Joe's Cafe
TTITLE7=The Drifters - Ruby Baby
TTITLE8=The Cookies - In Paradise
TTITLE9=Joe Turner - The Chicken And The Hawk
TTITLE10=The Clovers - Devil Or Angel
TTITLE11=Ray Charles - Drown In My Own Tears
TTITLE12=Ray Charles - Hallelujah, I Love Her So
TTITLE13=LaVern Baker - Jim Dandy
TTITLE14=The Coasters - Down In Mexico
TTITLE15=Joe Turner - Corrine Corrina
TTITLE16=Clyde McPhatter - Treasure Of Love
TTITLE17=The Clovers - Love, Love, Love
TTITLE18=Chuck Willis - It's Too Late
TTITLE19=Ray Charles - Lonely Avenue
TTITLE20=Ivory Joe Hunter - Since I Met You Baby
TTITLE21=Ruth Brown - Lucky Lips
TTITLE22=Clyde McPhatter - Without Love (There Is Nothing)
TTITLE23=The Drifters - Fools Fall In Love
TTITLE24=Joe Turner - Midnight Special Train
TTITLE25=Ivory Joe Hunter - Empty Arms
TTITLE26=Chuck Willis - C.C. Rider
TTITLE27=The Coasters - Searchin'
EXTD=1955-1957\nCD issued 1991, Atlantic, 7 82305-2
EXTT0=The Cardinals
EXTT1=Joe Turner
EXTT2=Ray Charles
EXTT3=Ray Charles
EXTT4=LaVern Baker
EXTT5=The Drifters
EXTT6=The Robins
EXTT7=The Drifters
EXTT8=The Cookies
EXTT9=Joe Turner
EXTT10=The Clovers
EXTT11=Ray Charles
EXTT12=Ray Charles
EXTT13=LaVern Baker
EXTT14=The Coasters
EXTT15=Joe Turner
EXTT16=Clyde McPhatter
EXTT17=The Clovers
EXTT18=Chuck Willis
EXTT19=
EXTT20=Ivory Joe Hunter
EXTT21=Ruth Brown
EXTT22=Clyde McPhatter
EXTT23=The Drifters
EXTT24=Joe Turner
EXTT25=Ivory Joe Hunter
EXTT26=Chuck Willis
EXTT27=The Coasters
PLAYORDER=
